#!OML:ASF E:\Steps\Project 1\Capture day 1\Session 2\Subject.ASF
:FULLY-SPECIFIED
:DEGREES
112
root -1.21684 19.5726 20.459 -154.156 -4.58681 180.34
lowerback -26.908 -1.80519 -7.57194
upperback -0.8586 -0.496823 0.145618
thorax 14.1863 -0.933818 4.30548
lowerneck -8.03535 -7.32077 -0.519038
upperneck 22.921 -11.7354 0.116603
head 8.48914 -6.06781 -1.07463
rclavicle 3.37934e-015 -1.59028e-015
rhumerus -39.0623 -19.4845 -77.7783
rradius 33.0589
rwrist -4.31042
rhand -4.76466 -57.8284
rfingers 7.12502
rthumb 21.0195 -86.7093
lclavicle 3.37934e-015 -1.59028e-015
lhumerus -28.911 3.87867 80.7109
lradius 24.253
lwrist -3.12466
lhand -22.4823 -13.156
lfingers 7.12502
lthumb 3.94303 16.7873
rfemur -25.1396 5.83153 23.1417
rtibia 12.1965
rfoot -22.8088 -1.31287
rtoes -18.1086
lfemur -29.452 -13.0715 -18.6981
ltibia 20.3411
lfoot -14.3124 -0.10897
ltoes -15.783
113
root -1.21487 19.5682 20.4398 -154.197 -4.67441 180.394
lowerback -26.9499 -1.84813 -7.62372
upperback -0.477982 -0.529674 0.265918
thorax 13.9099 -0.926953 4.22249
lowerneck -7.94307 -7.4059 -0.461268
upperneck 22.9482 -11.8837 0.118781
head 8.47912 -6.13804 -1.09365
rclavicle -3.8763e-015 1.78906e-014
rhumerus -39.0076 -19.3735 -77.8891
rradius 33.1703
rwrist -4.24371
rhand -4.60231 -58.3414
rfingers 7.12502
rthumb 21.1755 -87.205
lclavicle -3.8763e-015 1.78906e-014
lhumerus -28.9667 4.05097 80.4986
lradius 24.22
lwrist -3.1597
lhand -22.2162 -13.1327
lfingers 7.12502
lthumb 4.20003 16.8056
rfemur -25.2592 5.73092 23.2721
rtibia 12.6755
rfoot -23.0924 -1.27795
rtoes -18.0635
lfemur -29.4805 -13.1164 -18.6246
ltibia 20.6494
lfoot -14.5756 -0.177726
ltoes -16.2917
114
root -1.21583 19.5655 20.4215 -154.257 -4.8202 180.485
lowerback -26.9596 -1.87577 -7.64316
upperback -0.468148 -0.560386 0.292028
thorax 13.9305 -0.943101 4.25022
lowerneck -7.84181 -7.4779 -0.430655
upperneck 23.1045 -12.0417 0.131205
head 8.51409 -6.21864 -1.11131
rclavicle -2.98177e-015 6.75868e-015
rhumerus -39.1829 -19.3621 -77.8467
rradius 33.37
rwrist -4.05304
rhand -4.14533 -58.2459
rfingers 7.12502
rthumb 21.6144 -87.0596
lclavicle -2.98177e-015 6.75868e-015
lhumerus -29.0545 4.15481 80.3313
lradius 24.1502
lwrist -3.28574
lhand -22.0052 -13.0556
lfingers 7.12502
lthumb 4.4037 16.8787
rfemur -25.2671 5.46891 23.4756
rtibia 13.0075
rfoot -23.25 -1.15747
rtoes -18.4959
lfemur -29.4753 -13.1854 -18.5055
ltibia 20.8944
lfoot -14.7073 -0.283465
ltoes -15.7641
115
root -1.21622 19.5624 20.4044 -154.363 -4.89573 180.593
lowerback -26.8912 -1.86748 -7.70094
upperback -0.438666 -0.534496 0.329026
thorax 13.9296 -0.934473 4.33348
lowerneck -7.93489 -7.57184 -0.432879
upperneck 23.2236 -12.2005 0.162799
head 8.57511 -6.28899 -1.12612
rclavicle -1.88845e-015 -2.78299e-015
rhumerus -39.2696 -19.3493 -77.8245
rradius 33.502
rwrist -4.19031
rhand -4.38595 -57.4624
rfingers 7.12502
rthumb 21.3833 -86.3025
lclavicle -1.88845e-015 -2.78299e-015
lhumerus -29.1452 4.20755 80.1885
lradius 24.1081
lwrist -3.45984
lhand -22.1143 -13.0012
lfingers 7.12502
lthumb 4.29842 16.9352
rfemur -25.3508 5.22305 23.6784
rtibia 13.5884
rfoot -23.5288 -0.899452
rtoes -18.2577
lfemur -29.3521 -13.3598 -18.3506
ltibia 20.9594
lfoot -14.7491 -0.321723
ltoes -13.9589
116
root -1.2136 19.5562 20.3869 -154.415 -4.89911 180.705
lowerback -26.8361 -1.86443 -7.78838
upperback -0.437517 -0.509613 0.354244
thorax 13.9017 -0.928043 4.41878
lowerneck -8.17092 -7.66078 -0.424017
upperneck 23.6711 -12.4153 0.17026
head 8.77356 -6.39101 -1.17874
rclavicle 5.06901e-015 -1.35174e-014
rhumerus -39.2739 -19.2256 -77.9158
rradius 33.6682
rwrist -4.41331
rhand -4.58865 -57.477
rfingers 7.12502
rthumb 21.1886 -86.339
lclavicle 5.06901e-015 -1.35174e-014
lhumerus -29.3109 4.05098 80.064
lradius 24.1847
lwrist -3.29612
lhand -22.5328 -12.9447
lfingers 7.12502
lthumb 3.89428 16.9994
rfemur -25.6345 5.22982 23.8237
rtibia 14.3939
rfoot -23.8692 -0.650455
rtoes -17.1439
lfemur -29.2988 -13.4661 -18.1965
ltibia 21.0684
lfoot -14.9815 -0.252231
ltoes -13.8995
117
root -1.21171 19.5501 20.3691 -154.385 -4.92667 180.76
lowerback -26.8999 -1.87621 -7.87637
upperback -0.476454 -0.496996 0.319819
thorax 13.8839 -0.928447 4.43174
lowerneck -8.45659 -7.69789 -0.552426
upperneck 24.79 -12.7536 0.35789
head 9.24187 -6.56386 -1.20109
rclavicle 2.04748e-014 -1.90833e-014
rhumerus -39.3076 -19.1041 -78.0332
rradius 33.7964
rwrist -4.61824
rhand -4.49124 -57.1844
rfingers 7.12502
rthumb 21.2822 -86.0359
lclavicle 2.04748e-014 -1.90833e-014
lhumerus -29.5238 3.89386 79.8355
lradius 24.2274
lwrist -3.06022
lhand -22.541 -13.1341
lfingers 7.12502
lthumb 3.88639 16.8102
rfemur -26.0345 5.44533 23.8736
rtibia 15.2701
rfoot -24.2485 -0.765177
rtoes -16.6456
lfemur -29.4049 -13.4097 -18.1475
ltibia 21.3706
lfoot -15.2276 -0.287549
ltoes -14.729
118
root -1.21129 19.5476 20.3494 -154.481 -5.03787 180.794
lowerback -26.899 -1.89455 -7.91194
upperback -0.472556 -0.502832 0.262737
thorax 13.8872 -0.932094 4.38642
lowerneck -7.44706 -7.65532 -0.320789
upperneck 23.5941 -12.5235 0.341148
head 8.6217 -6.45134 -1.10881
rclavicle 5.96354e-016 -1.03368e-014
rhumerus -39.275 -19.034 -78.1092
rradius 33.7972
rwrist -4.7298
rhand -4.32401 -56.6988
rfingers 7.12502
rthumb 21.4428 -85.5321
lclavicle 5.96354e-016 -1.03368e-014
lhumerus -29.7004 4.00281 79.5021
lradius 24.1692
lwrist -3.00791
lhand -22.1631 -13.3238
lfingers 7.12502
lthumb 4.25128 16.6135
rfemur -26.3132 5.44204 23.9811
rtibia 16.2392
rfoot -24.7601 -0.836892
rtoes -16.9016
lfemur -29.3509 -13.4247 -18.1306
ltibia 21.6304
lfoot -15.3348 -0.437395
ltoes -14.3193
119
root -1.20873 19.5427 20.3285 -154.632 -5.14743 180.736
lowerback -26.8019 -1.95375 -8.05693
upperback -0.446206 -0.530266 0.193269
thorax 13.8727 -0.950482 4.38078
lowerneck -7.15582 -7.45023 -0.471229
upperneck 23.4427 -12.2463 0.553154
head 8.53959 -6.32225 -0.969612
rclavicle 7.35503e-015 -2.78299e-014
rhumerus -39.1865 -18.8941 -78.2227
rradius 33.7983
rwrist -4.8045
rhand -4.31638 -56.7037
rfingers 7.12502
rthumb 21.4501 -85.5362
lclavicle 7.35503e-015 -2.78299e-014
lhumerus -29.8777 4.03064 79.258
lradius 24.1729
lwrist -2.86466
lhand -22.0575 -13.0273
lfingers 7.12502
lthumb 4.35327 16.908
rfemur -26.5049 5.05825 24.0653
rtibia 17.16
rfoot -25.1076 -0.526302
rtoes -17.5322
lfemur -29.1982 -13.5443 -18.204
ltibia 21.8051
lfoot -15.4627 -0.458972
ltoes -14.1628
120
root -1.20581 19.5347 20.3082 -154.661 -5.22339 180.679
lowerback -26.8572 -2.04075 -8.23716
upperback -0.363347 -0.567289 0.149731
thorax 13.9986 -0.98216 4.41717
lowerneck -7.40981 -7.34805 -0.655001
upperneck 23.6895 -12.1666 0.80233
head 8.69938 -6.27088 -0.877472
rclavicle -4.57205e-015 1.74931e-014
rhumerus -38.9613 -18.7499 -78.3918
rradius 33.8993
rwrist -4.72755
rhand -4.56419 -56.1704
rfingers 7.12502
rthumb 21.2121 -85.0298
lclavicle -4.57205e-015 1.74931e-014
lhumerus -29.9072 3.81863 79.147
lradius 24.2512
lwrist -2.5841
lhand -22.0627 -12.7194
lfingers 7.12502
lthumb 4.34822 17.216
rfemur -26.8315 4.59425 24.1441
rtibia 18.0404
rfoot -25.1168 -0.306517
rtoes -18.2767
lfemur -29.1487 -13.5704 -18.2734
ltibia 21.929
lfoot -15.5847 -0.478268
ltoes -14.6487
121
root -1.20705 19.5297 20.2901 -154.614 -5.27596 180.715
lowerback -27.0363 -2.09326 -8.30482
upperback -0.259624 -0.583305 0.128704
thorax 14.2064 -1.00136 4.42306
lowerneck -7.81667 -7.33456 -0.572904
upperneck 24.0118 -12.1932 0.781953
head 8.87917 -6.26808 -0.933898
rclavicle 1.49089e-014 -1.19271e-014
rhumerus -38.7159 -18.6671 -78.5832
rradius 34.1608
rwrist -4.73337
rhand -3.87145 -57.8665
rfingers 7.12502
rthumb 21.8774 -86.6497
lclavicle 1.49089e-014 -1.19271e-014
lhumerus -29.8647 3.63084 78.9863
lradius 24.3739
lwrist -2.37529
lhand -21.6928 -12.9499
lfingers 7.12502
lthumb 4.70538 16.9779
rfemur -27.4355 4.24042 24.2814
rtibia 19.2203
rfoot -25.1256 -0.296909
rtoes -18.7692
lfemur -29.1998 -13.5691 -18.2286
ltibia 22.071
lfoot -15.7143 -0.501053
ltoes -15.2825
122
root -1.20894 19.5263 20.2765 -154.566 -5.29988 180.7
lowerback -27.0981 -2.14872 -8.44557
upperback -0.259702 -0.606445 0.105673
thorax 14.2377 -1.02311 4.46389
lowerneck -7.93146 -7.36216 -0.429694
upperneck 24.2234 -12.2699 0.668455
head 8.95742 -6.30453 -1.01561
rclavicle 2.38542e-015 -8.74653e-015
rhumerus -38.6914 -18.5339 -78.7007
rradius 34.4345
rwrist -4.9549
rhand -3.9954 -57.707
rfingers 7.12502
rthumb 21.7584 -86.504
lclavicle 2.38542e-015 -8.74653e-015
lhumerus -30.0611 3.4828 78.8354
lradius 24.5502
lwrist -2.17912
lhand -21.6535 -13.1565
lfingers 7.12502
lthumb 4.74339 16.7704
rfemur -28.1856 4.07302 24.311
rtibia 20.6776
rfoot -25.3724 -0.502403
rtoes -19.5191
lfemur -29.341 -13.6254 -18.2367
ltibia 22.3736
lfoot -15.9327 -0.435157
ltoes -15.8896
